<?xml version="1.0" ?><svg viewBox="0 0 64 64" xmlns="http://www.w3.org/2000/svg"><defs><style>.cls-1{fill:none;stroke:#000;stroke-linecap:round;stroke-linejoin:round;stroke-width:2px;}</style></defs><title/><g data-name="Layer 6" id="Layer_6"><path class="cls-1" d="M50.39,17.46V46.54a4.64,4.64,0,0,1-4.62,4.63H17.18a4.64,4.64,0,0,1-4.62-4.62V17.46a4.64,4.64,0,0,1,4.62-4.63H45.77"/><circle cx="50.44" cy="14.13" r="1"/><circle cx="39.03" cy="25" r="1"/><path class="cls-1" d="M23.77,20.32a3.75,3.75,0,0,0-3.47,3.74V39.94a3.77,3.77,0,0,0,3.76,3.76h8.59"/><path class="cls-1" d="M32.65,43.7h7.29a3.77,3.77,0,0,0,3.76-3.76V24.06a3.77,3.77,0,0,0-3.76-3.76H24.06a1.37,1.37,0,0,0-.29,0"/><path class="cls-1" d="M34,26.74A5.64,5.64,0,1,0,37.64,32"/></g></svg>