<?xml version="1.0" ?><svg enable-background="new 0 0 512 512" version="1.1" viewBox="0 0 512 512" xml:space="preserve" xmlns="http://www.w3.org/2000/svg" xmlns:xlink="http://www.w3.org/1999/xlink"><g id="Layer_4"><path d="   M323,435.99c-20.86,7.77-43.43,12.01-67,12.01c-106.04,0-192-85.96-192-192S149.96,64,256,64s192,85.96,192,192   c0,69.82-37.27,130.94-93,164.54" fill="none" stroke="#231F20" stroke-linecap="round" stroke-linejoin="round" stroke-miterlimit="10" stroke-width="15"/><g><g><path d="     M162.9,347V217.47h39.95V347H188 M172.4,155.62c3.15-1.61,6.71-2.52,10.49-2.52 M182.89,153.09c12.77,0,23.13,10.46,23.13,23.33     c0,12.89-10.36,23.38-23.13,23.38c-12.81,0-23.16-10.49-23.16-23.38c0-1.16,0.08-2.3,0.25-3.42" fill="none" stroke="#231F20" stroke-linecap="round" stroke-linejoin="round" stroke-miterlimit="10" stroke-width="14"/><path d="     M344,232.85c6.5,11,8.27,26.09,8.27,43.11V347H312.4v-62.97c0-15.04-0.28-34.35-20.72-34.35c-20.76,0-23.93,16.36-23.93,33.25     V347h-39.87V217.47h38.26v8.83v8.88h0.53c5.33-10.19,18.34-20.92,37.77-20.92c8.75,0,15.95,1.26,21.86,3.58" fill="none" stroke="#231F20" stroke-linecap="round" stroke-linejoin="round" stroke-miterlimit="10" stroke-width="14"/></g></g></g><g id="Layer_1"/></svg>