<?xml version="1.0" ?><!DOCTYPE svg  PUBLIC '-//W3C//DTD SVG 1.1//EN'  'http://www.w3.org/Graphics/SVG/1.1/DTD/svg11.dtd'><svg enable-background="new 0 0 32 32" height="32px" version="1.1" viewBox="0 0 32 32" width="32px" xml:space="preserve" xmlns="http://www.w3.org/2000/svg" xmlns:xlink="http://www.w3.org/1999/xlink"><g id="weibo"><path d="M13.666,29.246C7.44,29.246,1,26.174,1,21.035c0-2.595,1.587-5.612,4.47-8.496   c0.932-0.931,1.916-1.752,2.929-2.442c0.227-0.153,0.539-0.098,0.694,0.131c0.155,0.229,0.097,0.54-0.132,0.695   c-0.96,0.655-1.897,1.436-2.784,2.323C3.483,15.94,2,18.707,2,21.035c0,4.514,5.932,7.211,11.666,7.211   c7.827,0,12.634-4.497,12.634-7.72c0-2.32-2.414-3.251-3.16-3.483c-0.307-0.092-0.653-0.196-0.822-0.545   c-0.172-0.356-0.021-0.736,0.028-0.86c0.422-1.061,0.443-1.874,0.064-2.416c-0.753-1.072-3.109-1.017-5.867,0.139   c-0.007,0.003-0.013,0.005-0.02,0.008c-0.524,0.208-0.922,0.189-1.182-0.055c-0.128-0.12-0.319-0.396-0.158-0.896   c0.41-1.318,0.341-2.344-0.199-2.883c-0.506-0.506-1.452-0.601-2.67-0.265C12.053,9.342,11.772,9.186,11.7,8.92   c-0.074-0.266,0.082-0.542,0.349-0.615c1.6-0.443,2.859-0.263,3.643,0.521c0.777,0.776,0.96,2.011,0.535,3.583   c3.271-1.354,5.951-1.264,7.002,0.239c0.585,0.835,0.601,1.965,0.047,3.358c-0.004,0.01-0.008,0.019-0.011,0.028   c0.052,0.017,0.112,0.035,0.163,0.051l0,0c0.002,0,0.004,0.001,0.006,0.001c2.421,0.75,3.866,2.41,3.866,4.439   C27.3,24.642,21.469,29.246,13.666,29.246z M12.391,27.591c-4.48,0-8.154-2.249-8.463-5.363c-0.338-3.421,3.51-6.611,8.578-7.112   c2.413-0.239,4.759,0.158,6.592,1.118c1.902,0.996,3.043,2.479,3.211,4.176c0.168,1.698-0.659,3.376-2.33,4.727   c-1.61,1.301-3.829,2.149-6.248,2.388l0,0C13.278,27.569,12.83,27.591,12.391,27.591z M13.877,16.048   c-0.419,0-0.845,0.021-1.273,0.063c-4.519,0.447-7.964,3.146-7.68,6.019s4.199,4.84,8.709,4.4c2.227-0.22,4.257-0.991,5.717-2.171   c1.4-1.131,2.098-2.498,1.963-3.85c-0.133-1.351-1.084-2.554-2.679-3.389C17.292,16.417,15.637,16.048,13.877,16.048z" fill="#263238"/><g><path d="M28.882,15.537c0.32,0.105,0.647-0.067,0.76-0.362l0.011-0.033c0.784-2.436,0.209-5.125-1.501-7.019    c-1.694-1.879-4.357-2.739-6.833-2.211c-0.328,0.07-0.539,0.395-0.469,0.724c0.068,0.322,0.4,0.534,0.724,0.47    c0.408-0.087,0.826-0.131,1.244-0.131c1.685,0,3.298,0.716,4.428,1.965c1.422,1.575,1.899,3.809,1.245,5.829    C28.387,15.089,28.563,15.434,28.882,15.537z" fill="#263238"/><path d="M29.074,15.818L29.074,15.818c-0.092,0-0.183-0.014-0.271-0.043c-0.449-0.146-0.697-0.632-0.552-1.083    c0.627-1.935,0.17-4.075-1.192-5.584c-1.351-1.493-3.47-2.176-5.435-1.757c-0.498,0.096-0.926-0.217-1.02-0.663    c-0.1-0.463,0.197-0.921,0.66-1.021c0.494-0.105,1.004-0.158,1.515-0.158c2.13,0,4.154,0.892,5.557,2.447    c1.77,1.959,2.365,4.743,1.554,7.263C29.749,15.596,29.427,15.818,29.074,15.818z M22.817,6.725c1.755,0,3.436,0.746,4.613,2.048    c1.481,1.642,1.979,3.969,1.298,6.074c-0.062,0.188,0.042,0.392,0.23,0.453c0.185,0.063,0.383-0.039,0.449-0.213    c0.763-2.372,0.208-4.968-1.442-6.796c-1.308-1.45-3.197-2.282-5.186-2.282c-0.476,0-0.95,0.049-1.41,0.147    c-0.193,0.042-0.317,0.233-0.276,0.427c0.039,0.183,0.236,0.316,0.431,0.277C21.946,6.771,22.382,6.725,22.817,6.725z" fill="#263238"/></g><path d="M26.155,9.927c0,0,0-0.001-0.001-0.002c-1.056-1.17-2.713-1.708-4.273-1.381   c-0.404,0.086-0.663,0.486-0.576,0.89c0.083,0.396,0.507,0.662,0.89,0.578c1.03-0.222,2.142,0.139,2.847,0.918   c0.712,0.789,0.95,1.91,0.622,2.924c-0.062,0.191-0.045,0.394,0.046,0.572s0.246,0.311,0.438,0.373   c0.075,0.024,0.152,0.036,0.23,0.036c0.326,0,0.613-0.208,0.714-0.519C27.584,12.792,27.225,11.111,26.155,9.927z" fill="#263238"/><path d="M13.947,21.318c-0.168,0.288-0.539,0.426-0.83,0.306c-0.286-0.118-0.375-0.438-0.213-0.721   c0.167-0.281,0.524-0.417,0.81-0.304C14.003,20.705,14.107,21.029,13.947,21.318L13.947,21.318z M12.418,23.282   c-0.465,0.741-1.459,1.065-2.208,0.723c-0.738-0.335-0.956-1.197-0.491-1.919c0.458-0.719,1.42-1.04,2.163-0.729   C12.633,21.679,12.874,22.534,12.418,23.282L12.418,23.282z M14.162,18.039c-2.284-0.594-4.867,0.544-5.859,2.558   c-1.01,2.053-0.033,4.332,2.274,5.077c2.392,0.771,5.209-0.41,6.189-2.627C17.732,20.88,16.526,18.65,14.162,18.039L14.162,18.039z   " fill="#263238"/><g><g><g><g><g><g><path d="M11,9.5c0,0.275-0.225,0.5-0.5,0.5l0,0C10.225,10,10,9.775,10,9.5l0,0C10,9.225,10.225,9,10.5,9l0,0         C10.775,9,11,9.225,11,9.5L11,9.5z" fill="#263238"/></g></g></g></g></g></g></g></svg>