<svg xmlns="http://www.w3.org/2000/svg" width="128" height="128" viewBox="0 0 24 24"><path fill="#000000" fill-rule="evenodd" d="M12.01 22.597c-.737.076-2.183.15-3.5.153a20.016 20.016 0 0 1-1.893-.07a4.86 4.86 0 0 1-.728-.12a1.74 1.74 0 0 1-.34-.123a.984.984 0 0 1-.41-.37a1.098 1.098 0 0 1-.152-.684c.026-.235.123-.426.226-.569c.192-.268.476-.462.707-.597c.102-.059.21-.114.319-.167a6.5 6.5 0 0 1-1.051-1.818a5.818 5.818 0 0 1-.379.431a2.38 2.38 0 0 1-.373.317c-.108.071-.369.229-.702.188a.868.868 0 0 1-.611-.39a1.342 1.342 0 0 1-.171-.39a3.28 3.28 0 0 1-.091-.908c.013-.72.174-1.76.613-3.173c.34-1.092.719-2.032 1.229-3.296l.007-.017l.296-.734c-.039-2.318.42-4.526 1.529-6.19c1.156-1.734 2.98-2.815 5.466-2.82h.018c2.486.005 4.31 1.086 5.466 2.82c1.108 1.664 1.568 3.872 1.53 6.19c.103.259.201.502.295.734l.007.018c.51 1.263.89 2.203 1.229 3.295c.439 1.412.6 2.452.613 3.173c.007.356-.023.663-.09.908c-.034.12-.085.26-.172.39a.868.868 0 0 1-.611.39c-.333.04-.594-.117-.702-.188a2.376 2.376 0 0 1-.373-.317a5.809 5.809 0 0 1-.379-.431a6.498 6.498 0 0 1-1.05 1.818c.108.052.215.108.317.167c.232.135.515.33.708.598c.103.142.2.333.226.567c.027.246-.032.481-.152.685a.983.983 0 0 1-.41.37a1.74 1.74 0 0 1-.34.124a4.862 4.862 0 0 1-.728.119c-.531.052-1.206.071-1.893.07c-1.317-.002-2.763-.077-3.5-.153m-5.502-12.22c-.057-2.19.372-4.118 1.275-5.475c.877-1.316 2.235-2.15 4.227-2.152c1.992.003 3.35.836 4.227 2.152c.903 1.357 1.332 3.285 1.275 5.476a.75.75 0 0 0 .053.298l.354.88c.518 1.281.875 2.168 1.194 3.196c.256.822.401 1.48.477 1.987c-.274-.389-.49-.733-.51-.765a.75.75 0 0 0-.738-.347h-.002a.75.75 0 0 0-.647.742c-.002.996-.531 2.384-1.727 3.398a.75.75 0 0 0-.068 1.08v.001a.76.76 0 0 0 .332.21c.141.043.311.1.486.167c-.36.018-.77.026-1.204.025c-1.325-.002-2.86-.087-3.502-.157c-.643.07-2.177.155-3.502.157a24.8 24.8 0 0 1-1.205-.025a7.76 7.76 0 0 1 .487-.167a.75.75 0 0 0 .331-.21h.001a.75.75 0 0 0 .186-.636v-.001a.75.75 0 0 0-.254-.444c-1.196-1.014-1.725-2.402-1.727-3.398a.75.75 0 0 0-.647-.742h-.002a.75.75 0 0 0-.739.347c-.02.032-.235.376-.509.765a13.48 13.48 0 0 1 .477-1.987c.319-1.028.676-1.914 1.194-3.196l.354-.88a.75.75 0 0 0 .053-.298" clip-rule="evenodd"/></svg>